<?xml version="1.0" encoding="UTF-8" standalone="no"?>
<svg
   width="16"
   height="16"
   version="1.1"
   id="svg1"
   sodipodi:docname="lock-screen-light.svg"
   inkscape:version="1.4.2 (ebf0e940d0, 2025-05-08)"
   xmlns:inkscape="http://www.inkscape.org/namespaces/inkscape"
   xmlns:sodipodi="http://sodipodi.sourceforge.net/DTD/sodipodi-0.dtd"
   xmlns="http://www.w3.org/2000/svg"
   xmlns:svg="http://www.w3.org/2000/svg">
  <defs
     id="defs1" />
  <sodipodi:namedview
     id="namedview1"
     pagecolor="#ffffff"
     bordercolor="#000000"
     borderopacity="0.25"
     inkscape:showpageshadow="2"
     inkscape:pageopacity="0.0"
     inkscape:pagecheckerboard="0"
     inkscape:deskcolor="#d1d1d1"
     inkscape:zoom="38"
     inkscape:cx="7.9868421"
     inkscape:cy="7.9605263"
     inkscape:window-width="2544"
     inkscape:window-height="1038"
     inkscape:window-x="0"
     inkscape:window-y="0"
     inkscape:window-maximized="0"
     inkscape:current-layer="svg1" />
  <path
     style="fill:#dfdfdf"
     d="M 8,1 C 5.784,1 4,2.784 4,5 V 7 H 3 C 2.446,7 2,7.446 2,8 V 14 C 2,14.554 2.446,15 3,15 H 13 C 13.554,15 14,14.554 14,14 V 8 C 14,7.446 13.554,7 13,7 H 12 V 5 C 12,2.784 10.216,1 8,1 Z M 8,3 C 9.108,3 10,3.892 10,5 V 7 H 6 V 5 C 6,3.892 6.892,3 8,3 Z"
     id="path1" />
  <path
     style="fill:#4c4f69;stroke-width:0.0263158;fill-opacity:1"
     d="M 2.7368421,14.950077 C 2.4451357,14.85721 2.2357491,14.67675 2.1077513,14.407895 L 2.0263158,14.236842 V 11 7.7631579 l 0.081435,-0.1710526 c 0.1034984,-0.217395 0.2669589,-0.3808556 0.484354,-0.484354 l 0.1710526,-0.081436 0.6230142,-0.00828 0.6230142,-0.00828 0.011364,-1.2680323 C 4.0308998,4.5867853 4.0367483,4.4511453 4.0861206,4.2209879 4.436184,2.5891094 5.6690892,1.3784824 7.2894737,1.0755185 c 0.3647634,-0.0682 1.0562892,-0.0682 1.4210526,0 1.6190927,0.3027224 2.8535687,1.5148915 3.2033527,3.1454694 0.04937,0.2301574 0.05522,0.3657974 0.06557,1.5207287 l 0.01136,1.2680323 0.623014,0.00828 0.623014,0.00828 0.171053,0.081436 c 0.217395,0.1034984 0.380855,0.266959 0.484354,0.484354 l 0.08144,0.1710526 V 11 14.236842 l -0.08144,0.171053 C 13.78875,14.62529 13.62529,14.78875 13.407895,14.892249 l -0.171053,0.08144 -5.1973683,0.005 c -4.1471744,0.004 -5.2186382,-0.0018 -5.3026316,-0.02856 z M 10.013158,5.9233676 c 0,-1.1906823 -0.01147,-1.3179737 -0.1510864,-1.677545 C 9.5230347,3.3726944 8.5654366,2.8468143 7.6377613,3.0243079 6.8046426,3.1837098 6.1837097,3.8046426 6.0243079,4.6377613 5.9956529,4.7875276 5.9868421,5.0898605 5.9868421,5.9233676 V 7.0131579 H 8 10.013158 Z"
     id="path2" />
</svg>
