<?xml version="1.0" encoding="UTF-8" standalone="no"?>
<svg
   width="16"
   height="16"
   version="1.1"
   id="svg2"
   sodipodi:docname="system-log-out-symbolic.svg"
   inkscape:version="1.4 (e7c3feb100, 2024-10-09)"
   xmlns:inkscape="http://www.inkscape.org/namespaces/inkscape"
   xmlns:sodipodi="http://sodipodi.sourceforge.net/DTD/sodipodi-0.dtd"
   xmlns="http://www.w3.org/2000/svg"
   xmlns:svg="http://www.w3.org/2000/svg">
  <defs
     id="defs2" />
  <sodipodi:namedview
     id="namedview2"
     pagecolor="#ffffff"
     bordercolor="#000000"
     borderopacity="0.25"
     inkscape:showpageshadow="2"
     inkscape:pageopacity="0.0"
     inkscape:pagecheckerboard="0"
     inkscape:deskcolor="#d1d1d1"
     inkscape:zoom="38"
     inkscape:cx="8"
     inkscape:cy="7.9868421"
     inkscape:window-width="1285"
     inkscape:window-height="1038"
     inkscape:window-x="0"
     inkscape:window-y="0"
     inkscape:window-maximized="0"
     inkscape:current-layer="svg2" />
  <path
     style="fill:#dfdfdf"
     d="M 12,5 16,8 12,11 V 9 H 8 V 7 H 12 Z"
     id="path1" />
  <path
     style="fill:#dfdfdf"
     d="M 8,2 A 6,6 0 0 0 2,8 6,6 0 0 0 8,14 6,6 0 0 0 12.24,12.24 L 10.826,10.826 A 4,4 0 0 1 8,12 4,4 0 0 1 4,8 4,4 0 0 1 8,4 4,4 0 0 1 10.826,5.1738 L 12.24,3.7598 A 6,6 0 0 0 8,2 Z"
     id="path2" />
  <path
     style="fill:#cdd6f4;stroke-width:0.0263158"
     d="M 7.3289474,13.948868 C 5.5617805,13.740262 3.9956912,12.780916 3.0090881,11.302632 2.9076612,11.150658 2.7370912,10.848684 2.6300436,10.631579 1.8089322,8.9662671 1.808716,7.0380366 2.6294536,5.3684211 4.1224652,2.3312071 7.8055958,1.1343329 10.799707,2.7134067 c 0.43889,0.2314681 1.120315,0.7252572 1.364035,0.9884376 l 0.05848,0.063148 -0.694417,0.6940462 -0.694417,0.6940464 -0.166694,-0.1458042 C 9.6471495,4.1155027 8.2926932,3.7873903 6.9996016,4.1189406 6.2839487,4.3024349 5.7070792,4.6341326 5.1706058,5.1706058 4.8152111,5.5260005 4.5989455,5.8307803 4.3811756,6.2831366 4.0476247,6.9759958 3.9238057,7.7555166 4.0257011,8.5210782 c 0.1192573,0.8960057 0.4986973,1.6612658 1.1449047,2.3090598 0.3310353,0.331849 0.6381726,0.55403 1.0519679,0.760989 1.4523995,0.726414 3.1982518,0.491332 4.4441193,-0.598408 l 0.166694,-0.145804 0.694417,0.694046 0.694417,0.694046 -0.05848,0.06315 c -0.127533,0.137717 -0.573876,0.493531 -0.847953,0.675969 -0.738066,0.491291 -1.559334,0.810536 -2.4342101,0.946232 -0.3796928,0.05889 -1.1720126,0.07344 -1.5526315,0.02851 z"
     id="path3" />
  <path
     style="fill:#cdd6f4;stroke-width:0.0263158"
     d="M 12.013158,9.9749918 V 8.9868421 h -2 -2.0000001 V 8 7.0131579 h 1.9996831 1.999684 l 0.0069,-0.9884833 0.0069,-0.9884834 1.975944,1.4819423 1.975944,1.4819423 -1.946503,1.4604884 c -1.070577,0.8032688 -1.962713,1.4699588 -1.982524,1.4815328 -0.03022,0.01765 -0.03602,-0.138159 -0.03602,-0.9671052 z"
     id="path4" />
</svg>
