<?xml version="1.0" encoding="UTF-8" standalone="no"?>
<svg
   width="16"
   height="16"
   version="1.1"
   id="svg1"
   sodipodi:docname="reboot-light.svg"
   inkscape:version="1.4.2 (ebf0e940d0, 2025-05-08)"
   xmlns:inkscape="http://www.inkscape.org/namespaces/inkscape"
   xmlns:sodipodi="http://sodipodi.sourceforge.net/DTD/sodipodi-0.dtd"
   xmlns="http://www.w3.org/2000/svg"
   xmlns:svg="http://www.w3.org/2000/svg">
  <defs
     id="defs1" />
  <sodipodi:namedview
     id="namedview1"
     pagecolor="#ffffff"
     bordercolor="#000000"
     borderopacity="0.25"
     inkscape:showpageshadow="2"
     inkscape:pageopacity="0.0"
     inkscape:pagecheckerboard="0"
     inkscape:deskcolor="#d1d1d1"
     inkscape:zoom="38"
     inkscape:cx="8"
     inkscape:cy="7.9605263"
     inkscape:window-width="1285"
     inkscape:window-height="1038"
     inkscape:window-x="0"
     inkscape:window-y="0"
     inkscape:window-maximized="0"
     inkscape:current-layer="svg1" />
  <path
     style="fill:#dfdfdf"
     d="M 8,2 A 1,1 0 0 0 7,3 1,1 0 0 0 8,4 4,4 0 0 1 12,8 H 10 L 13,12 16,8 H 14 A 6,6 0 0 0 8,2 Z M 3,4 0,8 H 2 A 6,6 0 0 0 8,14 1,1 0 0 0 9,13 1,1 0 0 0 8,12 4,4 0 0 1 4,8 H 6 Z"
     id="path1" />
  <path
     style="fill:#4c4f69;stroke-width:0.0263158;fill-opacity:1"
     d="M 7.3947368,13.958622 C 6.5478797,13.873918 5.5713855,13.541067 4.8552632,13.093008 4.1263795,12.636965 3.4835861,12.013599 3.0090882,11.302632 2.7597145,10.928981 2.4604103,10.312926 2.3186837,9.8815789 2.1401461,9.3381968 2.0131579,8.6152718 2.0131579,8.142265 V 7.987475 L 1.0246998,7.9805797 0.03624178,7.9736842 1.5180958,5.997757 2.9999497,4.0218297 4.4818792,5.997757 l 1.4819295,1.9759272 -0.9884832,0.0069 -0.9884834,0.0069 5.137e-4,0.1246837 c 0.00139,0.3377492 0.1252318,0.9588652 0.2625387,1.3167558 0.3510908,0.9151173 1.0723926,1.7105403 1.9515279,2.1520683 0.5451026,0.273767 0.9889589,0.38627 1.6942594,0.42944 0.3083782,0.01888 0.3676482,0.03046 0.5158382,0.100851 0.21415,0.101719 0.3770311,0.264759 0.4803624,0.480831 0.072795,0.152219 0.081802,0.19713 0.081802,0.407895 0,0.210765 -0.00901,0.255676 -0.081802,0.407895 -0.1036535,0.216746 -0.266,0.378831 -0.4839877,0.483209 -0.1579929,0.07565 -0.1941584,0.08226 -0.4736842,0.08655 -0.1664473,0.0026 -0.4092105,-0.006 -0.5394737,-0.01904 z"
     id="path2" />
  <path
     style="fill:#4c4f69;stroke-width:0.0263158;fill-opacity:1"
     d="m 11.518096,10.002243 -1.481854,-1.9759272 0.988458,-0.0069 0.988458,-0.0069 -5.14e-4,-0.1246837 C 12.01178,7.6780329 11.940089,7.2078824 11.870035,6.9526061 11.678403,6.2542982 11.34898,5.6901913 10.829394,5.1706058 10.499314,4.8405255 10.193584,4.6167978 9.8095124,4.4242746 9.2474311,4.1425208 8.8197809,4.0333686 8.1070567,3.9897445 7.8156803,3.9719101 7.7362908,3.9573253 7.6016246,3.8968908 7.3996574,3.8062533 7.1975285,3.6039273 7.0999597,3.3947368 7.0364627,3.2585974 7.0263158,3.2042092 7.0263158,3 c 0,-0.2112337 0.00889,-0.2553371 0.082242,-0.4078947 0.1685947,-0.3506543 0.4760814,-0.5533874 0.8707445,-0.5741019 0.1201934,-0.00631 0.3694151,0.00267 0.553826,0.01995 2.3810617,0.2231299 4.4087227,1.8320336 5.1500627,4.0864614 0.177489,0.5397461 0.303552,1.266435 0.303629,1.7502684 l 2.2e-5,0.1378416 0.988484,0.0069 0.988483,0.0069 -1.48193,1.9759272 -1.481929,1.975927 z"
     id="path3" />
</svg>
