<?xml version="1.0" encoding="UTF-8" standalone="no"?>
<svg
   width="16"
   height="16"
   version="1.1"
   id="svg2"
   sodipodi:docname="shutdown-light.svg"
   inkscape:version="1.4.2 (ebf0e940d0, 2025-05-08)"
   xmlns:inkscape="http://www.inkscape.org/namespaces/inkscape"
   xmlns:sodipodi="http://sodipodi.sourceforge.net/DTD/sodipodi-0.dtd"
   xmlns="http://www.w3.org/2000/svg"
   xmlns:svg="http://www.w3.org/2000/svg">
  <defs
     id="defs2" />
  <sodipodi:namedview
     id="namedview2"
     pagecolor="#ffffff"
     bordercolor="#000000"
     borderopacity="0.25"
     inkscape:showpageshadow="2"
     inkscape:pageopacity="0.0"
     inkscape:pagecheckerboard="0"
     inkscape:deskcolor="#d1d1d1"
     inkscape:zoom="38"
     inkscape:cx="8"
     inkscape:cy="7.9605263"
     inkscape:window-width="903"
     inkscape:window-height="1038"
     inkscape:window-x="0"
     inkscape:window-y="0"
     inkscape:window-maximized="0"
     inkscape:current-layer="svg2" />
  <path
     style="fill:#dfdfdf"
     d="M 8,1 C 8.554,1 9,1.446 9,2 V 7 C 9,7.554 8.554,8 8,8 7.446,8 7,7.554 7,7 V 2 C 7,1.446 7.446,1 8,1 Z"
     id="path1" />
  <path
     style="fill:#4c4f69;fill-rule:nonzero;fill-opacity:1"
     d="M 11,3 C 10.448,3 10,3.4477 10,4 10,4.2839 10.102,4.5767 10.329,4.748 11.358,5.525 11.998,6.7108 12,8 12,10.209 10.209,12 8,12 5.7909,12 4,10.209 4,8 4.0024,6.7105 4.644,5.5253 5.6719,4.7471 5.8981,4.5759 5.9994,4.2833 6,4 6,3.4477 5.5523,3 5,3 4.7151,3 4.4724,3.1511 4.2539,3.334 2.8611,4.4998 2.0063,6.1837 2,8 2,11.314 4.6863,14 8,14 11.314,14 14,11.314 14,8 13.996,6.1678 13.137,4.4602 11.714,3.2998 11.504,3.1282 11.267,3 11,3 Z"
     id="path2" />
  <path
     style="fill:#4c4f69;fill-opacity:1;fill-rule:nonzero;stroke-width:0.0263158"
     d="M 7.7368421,7.9515008 C 7.4403757,7.8531087 7.2353756,7.6759653 7.1077513,7.4078947 L 7.0263158,7.2368421 V 4.5 1.7631579 L 7.1077513,1.5921053 C 7.2112497,1.3747102 7.3747102,1.2112497 7.5921053,1.1077513 7.7440404,1.0354173 7.7896282,1.0263158 8,1.0263158 c 0.2103718,0 0.2559596,0.0091 0.4078947,0.081436 0.2173951,0.1034984 0.3808556,0.2669589 0.484354,0.484354 l 0.081435,0.1710526 V 4.5 7.2368421 L 8.8922487,7.4078947 C 8.7286332,7.7515639 8.4138752,7.9625232 8.0414888,7.9780971 7.9233736,7.9830371 7.7992002,7.9721963 7.7368421,7.9515008 Z"
     id="path3" />
</svg>
