<?xml version="1.0" encoding="UTF-8" standalone="no"?>
<svg
   width="16"
   height="16"
   version="1.1"
   id="svg2"
   sodipodi:docname="system-suspend-symbolic.svg"
   inkscape:version="1.4 (e7c3feb100, 2024-10-09)"
   xmlns:inkscape="http://www.inkscape.org/namespaces/inkscape"
   xmlns:sodipodi="http://sodipodi.sourceforge.net/DTD/sodipodi-0.dtd"
   xmlns="http://www.w3.org/2000/svg"
   xmlns:svg="http://www.w3.org/2000/svg">
  <defs
     id="defs2" />
  <sodipodi:namedview
     id="namedview2"
     pagecolor="#ffffff"
     bordercolor="#000000"
     borderopacity="0.25"
     inkscape:showpageshadow="2"
     inkscape:pageopacity="0.0"
     inkscape:pagecheckerboard="0"
     inkscape:deskcolor="#d1d1d1"
     inkscape:zoom="54.3125"
     inkscape:cx="8.009206"
     inkscape:cy="8"
     inkscape:window-width="1285"
     inkscape:window-height="1038"
     inkscape:window-x="0"
     inkscape:window-y="0"
     inkscape:window-maximized="0"
     inkscape:current-layer="svg2" />
  <path
     style="fill:#dfdfdf"
     d="M 8 2 A 6 6 0 0 0 2 8 A 6 6 0 0 0 8 14 A 6 6 0 0 0 14 8 A 6 6 0 0 0 8 2 z M 8 4 A 4 4 0 0 1 12 8 A 4 4 0 0 1 8 12 A 4 4 0 0 1 4 8 A 4 4 0 0 1 8 4 z"
     id="path1" />
  <path
     style="fill:#dfdfdf"
     d="M 6,7 H 10 C 10.554,7 11,7.446 11,8 11,8.554 10.554,9 10,9 H 6 C 5.446,9 5,8.554 5,8 5,7.446 5.446,7 6,7 Z"
     id="path2" />
  <path
     style="fill:#cdd6f4;stroke-width:0.018412"
     d="m 7.5028769,13.973003 c -0.03038,-0.0041 -0.1339471,-0.01644 -0.2301496,-0.02735 C 5.8300658,13.782006 4.4280451,13.03132 3.458392,11.903337 2.6612972,10.976089 2.1956781,9.9031965 2.0400748,8.6352129 2.0108595,8.3971421 2.0110449,7.5820415 2.0403659,7.3555811 2.1613119,6.4214577 2.4224496,5.6477507 2.8637625,4.9159954 3.7942875,3.3730617 5.3373737,2.3467758 7.1438435,2.0693707 7.4632291,2.0203253 8.1965803,2.0013983 8.5380027,2.0333891 9.9111247,2.1620488 11.171445,2.739181 12.159082,3.6915719 12.982262,4.485375 13.567528,5.5090563 13.827399,6.6096037 13.945132,7.1082022 13.982315,7.4419263 13.982315,8 c 0,0.5580737 -0.03718,0.8917978 -0.154916,1.3903963 -0.522212,2.2115587 -2.29121,3.9552437 -4.5195693,4.4548977 -0.4541006,0.10182 -0.6611027,0.123735 -1.2249758,0.129683 -0.2886076,0.003 -0.5495973,0.0022 -0.579977,-0.002 z m 1.0550987,-2.005775 c 0.4209582,-0.05869 0.8088862,-0.179247 1.2095733,-0.375909 0.9754771,-0.478776 1.6972411,-1.306382 2.0321051,-2.3300992 0.276744,-0.8460386 0.276744,-1.676401 0,-2.5224396 C 11.427631,5.6014652 10.5591,4.6917756 9.4269275,4.2536142 8.6950928,3.9703873 7.7996806,3.9184473 7.0243859,4.1142505 5.4632906,4.50851 4.3106819,5.7678717 4.0409629,7.3739931 c -0.041419,0.246644 -0.055532,0.7541976 -0.028311,1.0182185 0.1436441,1.3932477 0.9734678,2.5899364 2.2180897,3.1987074 0.4952177,0.242221 0.9383428,0.360816 1.5391087,0.411916 0.1431043,0.01217 0.5903466,-0.008 0.7881252,-0.03561 z"
     id="path3" />
  <path
     style="fill:#cdd6f4;stroke-width:0.018412"
     d="M 5.7899576,8.9671361 C 5.4234356,8.8873414 5.1378029,8.6118898 5.0448974,8.2486328 c -0.046585,-0.1821455 -0.046585,-0.3151201 0,-0.4972656 0.095828,-0.3746833 0.3978913,-0.6552096 0.7812689,-0.7255646 0.1524659,-0.027979 4.1952017,-0.027979 4.3476677,0 0.304862,0.055946 0.569732,0.2532611 0.708704,0.5279487 0.29225,0.577655 -0.04503,1.2766446 -0.682308,1.4140513 -0.170685,0.036802 -4.240993,0.036187 -4.4102724,-6.665e-4 z"
     id="path4" />
</svg>
